<svg width="225" height="90" viewBox="0 0 225 90" fill="none" xmlns="http://www.w3.org/2000/svg">
<mask id="path-1-outside-1" maskUnits="userSpaceOnUse" x="0" y="0" width="225" height="90" fill="black">
<rect fill="white" width="225" height="90"/>
<path d="M2.72949 1.44922L16.1836 32.3779L29.6826 1.44922H31.457V34.1523H30.2441V3.24609L16.6777 34.1523H15.7119L2.21289 3.40332V34.1523H1V1.44922H2.72949Z"/>
<path d="M81.3086 20.249C81.3086 23.0791 80.7995 25.5872 79.7813 27.7734C78.778 29.9447 77.3405 31.6292 75.4688 32.8271C73.597 34.0101 71.4408 34.6016 69 34.6016C65.3164 34.6016 62.3366 33.2913 60.0606 30.6709C57.7845 28.0505 56.6465 24.5166 56.6465 20.0693V15.3525C56.6465 12.5374 57.1482 10.0368 58.1514 7.85059C59.1696 5.66439 60.6146 3.97982 62.4864 2.79688C64.3731 1.59896 66.5293 1 68.9551 1C71.3959 1 73.5521 1.59896 75.4239 2.79688C77.3106 3.97982 78.7631 5.67188 79.7813 7.87305C80.7995 10.0592 81.3086 12.5524 81.3086 15.3525V20.249ZM80.0957 15.3076C80.0957 11.3545 79.0925 8.1875 77.086 5.80664C75.0795 3.41081 72.3692 2.21289 68.9551 2.21289C65.586 2.21289 62.8982 3.40332 60.8916 5.78418C58.8851 8.15007 57.8819 11.377 57.8819 15.4648V20.249C57.8819 22.8545 58.3311 25.1605 59.2295 27.167C60.1429 29.1585 61.4382 30.6934 63.1153 31.7715C64.7924 32.8496 66.7539 33.3887 69 33.3887C72.4141 33.3887 75.1169 32.1982 77.1084 29.8174C79.1 27.4365 80.0957 24.1872 80.0957 20.0693V15.3076Z"/>
<path d="M118.941 20.1592H107.599V34.1523H106.386V1.44922H116.808C120.087 1.44922 122.692 2.29525 124.624 3.9873C126.571 5.67936 127.544 7.97786 127.544 10.8828C127.544 13.1139 126.848 15.068 125.455 16.7451C124.078 18.4072 122.318 19.4404 120.177 19.8447L128.914 33.8379V34.1523H127.634L118.941 20.1592ZM107.599 18.9463H117.908C120.424 18.9463 122.453 18.1826 123.995 16.6553C125.552 15.1279 126.331 13.2038 126.331 10.8828C126.331 8.33724 125.47 6.33073 123.748 4.86328C122.041 3.39583 119.698 2.66211 116.718 2.66211H107.599V18.9463Z"/>
<path d="M171.533 24.3818H155.519L151.88 34.1523H150.555L162.796 1.44922H164.278L176.52 34.1523H175.194L171.533 24.3818ZM155.968 23.1689H171.084L163.537 2.90918L155.968 23.1689Z"/>
<path d="M223.069 34.1523H221.857L200.743 3.51562V34.1523H199.508V1.44922H200.743L221.857 32.0186V1.44922H223.069V34.1523Z"/>
<path d="M27.9756 84.6484C27.152 85.7865 25.707 86.7298 23.6406 87.4785C21.5742 88.2272 19.2982 88.6016 16.8125 88.6016C14.3867 88.6016 12.223 88.0101 10.3213 86.8271C8.4196 85.6442 6.92969 83.9746 5.85156 81.8184C4.78841 79.6621 4.24186 77.2214 4.21191 74.4961V68.8809C4.21191 66.2005 4.72852 63.7972 5.76172 61.6709C6.79492 59.5446 8.2474 57.9049 10.1191 56.752C11.9909 55.584 14.0947 55 16.4307 55C19.68 55 22.3229 55.8311 24.3594 57.4932C26.4108 59.1553 27.6012 61.4238 27.9307 64.2988H26.7178C26.3135 61.6934 25.2279 59.6943 23.4609 58.3018C21.694 56.9092 19.3506 56.2129 16.4307 56.2129C13.1364 56.2129 10.4785 57.3883 8.45703 59.7393C6.43555 62.0902 5.4248 65.1823 5.4248 69.0156V74.2266C5.4248 76.7871 5.89648 79.0706 6.83984 81.0771C7.79818 83.0837 9.13835 84.641 10.8604 85.749C12.5973 86.8421 14.5814 87.3887 16.8125 87.3887C18.9987 87.3887 21.0277 87.0667 22.8994 86.4229C24.7712 85.779 26.0589 85.0003 26.7627 84.0869V74.5635H16.7676V73.3281H27.9756V84.6484Z"/>
<path d="M71.4483 78.3818H55.4336L51.795 88.1523H50.4698L62.711 55.4492H64.1934L76.4346 88.1523H75.1094L71.4483 78.3818ZM55.8829 77.1689H70.9991L63.4522 56.9092L55.8829 77.1689Z"/>
<path d="M122.984 88.1523H121.772L100.658 57.5156V88.1523H99.4229V55.4492H100.658L121.772 86.0186V55.4492H122.984V88.1523Z"/>
<path d="M149.701 88.1523V55.4492H158.753C161.284 55.4492 163.575 56.0482 165.626 57.2461C167.678 58.444 169.287 60.1286 170.455 62.2998C171.623 64.4561 172.222 66.8743 172.252 69.5547V73.7998C172.252 76.5251 171.676 78.9808 170.523 81.167C169.385 83.3532 167.79 85.0602 165.738 86.2881C163.687 87.516 161.396 88.1374 158.865 88.1523H149.701ZM150.914 56.6621V86.9395H158.753C161.044 86.9395 163.125 86.3854 164.997 85.2773C166.884 84.1543 168.359 82.597 169.422 80.6055C170.485 78.599 171.024 76.3753 171.039 73.9346V69.7344C171.039 67.2936 170.515 65.0775 169.467 63.0859C168.434 61.0944 166.981 59.5371 165.109 58.4141C163.253 57.276 161.194 56.6921 158.933 56.6621H150.914Z"/>
<path d="M220.666 74.249C220.666 77.0791 220.157 79.5872 219.139 81.7734C218.136 83.9447 216.698 85.6292 214.826 86.8271C212.955 88.0101 210.798 88.6016 208.358 88.6016C204.674 88.6016 201.694 87.2913 199.418 84.6709C197.142 82.0505 196.004 78.5166 196.004 74.0693V69.3525C196.004 66.5374 196.506 64.0368 197.509 61.8506C198.527 59.6644 199.972 57.9798 201.844 56.7969C203.731 55.599 205.887 55 208.313 55C210.753 55 212.91 55.599 214.781 56.7969C216.668 57.9798 218.121 59.6719 219.139 61.873C220.157 64.0592 220.666 66.5524 220.666 69.3525V74.249ZM219.453 69.3076C219.453 65.3545 218.45 62.1875 216.444 59.8066C214.437 57.4108 211.727 56.2129 208.313 56.2129C204.944 56.2129 202.256 57.4033 200.249 59.7842C198.243 62.1501 197.239 65.377 197.239 69.4648V74.249C197.239 76.8545 197.689 79.1605 198.587 81.167C199.5 83.1585 200.796 84.6934 202.473 85.7715C204.15 86.8496 206.111 87.3887 208.358 87.3887C211.772 87.3887 214.474 86.1982 216.466 83.8174C218.458 81.4365 219.453 78.1872 219.453 74.0693V69.3076Z"/>
</mask>
<path d="M2.72949 1.44922L16.1836 32.3779L29.6826 1.44922H31.457V34.1523H30.2441V3.24609L16.6777 34.1523H15.7119L2.21289 3.40332V34.1523H1V1.44922H2.72949Z" fill="black"/>
<path d="M81.3086 20.249C81.3086 23.0791 80.7995 25.5872 79.7813 27.7734C78.778 29.9447 77.3405 31.6292 75.4688 32.8271C73.597 34.0101 71.4408 34.6016 69 34.6016C65.3164 34.6016 62.3366 33.2913 60.0606 30.6709C57.7845 28.0505 56.6465 24.5166 56.6465 20.0693V15.3525C56.6465 12.5374 57.1482 10.0368 58.1514 7.85059C59.1696 5.66439 60.6146 3.97982 62.4864 2.79688C64.3731 1.59896 66.5293 1 68.9551 1C71.3959 1 73.5521 1.59896 75.4239 2.79688C77.3106 3.97982 78.7631 5.67188 79.7813 7.87305C80.7995 10.0592 81.3086 12.5524 81.3086 15.3525V20.249ZM80.0957 15.3076C80.0957 11.3545 79.0925 8.1875 77.086 5.80664C75.0795 3.41081 72.3692 2.21289 68.9551 2.21289C65.586 2.21289 62.8982 3.40332 60.8916 5.78418C58.8851 8.15007 57.8819 11.377 57.8819 15.4648V20.249C57.8819 22.8545 58.3311 25.1605 59.2295 27.167C60.1429 29.1585 61.4382 30.6934 63.1153 31.7715C64.7924 32.8496 66.7539 33.3887 69 33.3887C72.4141 33.3887 75.1169 32.1982 77.1084 29.8174C79.1 27.4365 80.0957 24.1872 80.0957 20.0693V15.3076Z" fill="black"/>
<path d="M118.941 20.1592H107.599V34.1523H106.386V1.44922H116.808C120.087 1.44922 122.692 2.29525 124.624 3.9873C126.571 5.67936 127.544 7.97786 127.544 10.8828C127.544 13.1139 126.848 15.068 125.455 16.7451C124.078 18.4072 122.318 19.4404 120.177 19.8447L128.914 33.8379V34.1523H127.634L118.941 20.1592ZM107.599 18.9463H117.908C120.424 18.9463 122.453 18.1826 123.995 16.6553C125.552 15.1279 126.331 13.2038 126.331 10.8828C126.331 8.33724 125.47 6.33073 123.748 4.86328C122.041 3.39583 119.698 2.66211 116.718 2.66211H107.599V18.9463Z" fill="black"/>
<path d="M171.533 24.3818H155.519L151.88 34.1523H150.555L162.796 1.44922H164.278L176.52 34.1523H175.194L171.533 24.3818ZM155.968 23.1689H171.084L163.537 2.90918L155.968 23.1689Z" fill="black"/>
<path d="M223.069 34.1523H221.857L200.743 3.51562V34.1523H199.508V1.44922H200.743L221.857 32.0186V1.44922H223.069V34.1523Z" fill="black"/>
<path d="M27.9756 84.6484C27.152 85.7865 25.707 86.7298 23.6406 87.4785C21.5742 88.2272 19.2982 88.6016 16.8125 88.6016C14.3867 88.6016 12.223 88.0101 10.3213 86.8271C8.4196 85.6442 6.92969 83.9746 5.85156 81.8184C4.78841 79.6621 4.24186 77.2214 4.21191 74.4961V68.8809C4.21191 66.2005 4.72852 63.7972 5.76172 61.6709C6.79492 59.5446 8.2474 57.9049 10.1191 56.752C11.9909 55.584 14.0947 55 16.4307 55C19.68 55 22.3229 55.8311 24.3594 57.4932C26.4108 59.1553 27.6012 61.4238 27.9307 64.2988H26.7178C26.3135 61.6934 25.2279 59.6943 23.4609 58.3018C21.694 56.9092 19.3506 56.2129 16.4307 56.2129C13.1364 56.2129 10.4785 57.3883 8.45703 59.7393C6.43555 62.0902 5.4248 65.1823 5.4248 69.0156V74.2266C5.4248 76.7871 5.89648 79.0706 6.83984 81.0771C7.79818 83.0837 9.13835 84.641 10.8604 85.749C12.5973 86.8421 14.5814 87.3887 16.8125 87.3887C18.9987 87.3887 21.0277 87.0667 22.8994 86.4229C24.7712 85.779 26.0589 85.0003 26.7627 84.0869V74.5635H16.7676V73.3281H27.9756V84.6484Z" fill="black"/>
<path d="M71.4483 78.3818H55.4336L51.795 88.1523H50.4698L62.711 55.4492H64.1934L76.4346 88.1523H75.1094L71.4483 78.3818ZM55.8829 77.1689H70.9991L63.4522 56.9092L55.8829 77.1689Z" fill="black"/>
<path d="M122.984 88.1523H121.772L100.658 57.5156V88.1523H99.4229V55.4492H100.658L121.772 86.0186V55.4492H122.984V88.1523Z" fill="black"/>
<path d="M149.701 88.1523V55.4492H158.753C161.284 55.4492 163.575 56.0482 165.626 57.2461C167.678 58.444 169.287 60.1286 170.455 62.2998C171.623 64.4561 172.222 66.8743 172.252 69.5547V73.7998C172.252 76.5251 171.676 78.9808 170.523 81.167C169.385 83.3532 167.79 85.0602 165.738 86.2881C163.687 87.516 161.396 88.1374 158.865 88.1523H149.701ZM150.914 56.6621V86.9395H158.753C161.044 86.9395 163.125 86.3854 164.997 85.2773C166.884 84.1543 168.359 82.597 169.422 80.6055C170.485 78.599 171.024 76.3753 171.039 73.9346V69.7344C171.039 67.2936 170.515 65.0775 169.467 63.0859C168.434 61.0944 166.981 59.5371 165.109 58.4141C163.253 57.276 161.194 56.6921 158.933 56.6621H150.914Z" fill="black"/>
<path d="M220.666 74.249C220.666 77.0791 220.157 79.5872 219.139 81.7734C218.136 83.9447 216.698 85.6292 214.826 86.8271C212.955 88.0101 210.798 88.6016 208.358 88.6016C204.674 88.6016 201.694 87.2913 199.418 84.6709C197.142 82.0505 196.004 78.5166 196.004 74.0693V69.3525C196.004 66.5374 196.506 64.0368 197.509 61.8506C198.527 59.6644 199.972 57.9798 201.844 56.7969C203.731 55.599 205.887 55 208.313 55C210.753 55 212.91 55.599 214.781 56.7969C216.668 57.9798 218.121 59.6719 219.139 61.873C220.157 64.0592 220.666 66.5524 220.666 69.3525V74.249ZM219.453 69.3076C219.453 65.3545 218.45 62.1875 216.444 59.8066C214.437 57.4108 211.727 56.2129 208.313 56.2129C204.944 56.2129 202.256 57.4033 200.249 59.7842C198.243 62.1501 197.239 65.377 197.239 69.4648V74.249C197.239 76.8545 197.689 79.1605 198.587 81.167C199.5 83.1585 200.796 84.6934 202.473 85.7715C204.15 86.8496 206.111 87.3887 208.358 87.3887C211.772 87.3887 214.474 86.1982 216.466 83.8174C218.458 81.4365 219.453 78.1872 219.453 74.0693V69.3076Z" fill="black"/>
<path d="M2.72949 1.44922L16.1836 32.3779L29.6826 1.44922H31.457V34.1523H30.2441V3.24609L16.6777 34.1523H15.7119L2.21289 3.40332V34.1523H1V1.44922H2.72949Z" stroke="black" stroke-width="2" mask="url(#path-1-outside-1)"/>
<path d="M81.3086 20.249C81.3086 23.0791 80.7995 25.5872 79.7813 27.7734C78.778 29.9447 77.3405 31.6292 75.4688 32.8271C73.597 34.0101 71.4408 34.6016 69 34.6016C65.3164 34.6016 62.3366 33.2913 60.0606 30.6709C57.7845 28.0505 56.6465 24.5166 56.6465 20.0693V15.3525C56.6465 12.5374 57.1482 10.0368 58.1514 7.85059C59.1696 5.66439 60.6146 3.97982 62.4864 2.79688C64.3731 1.59896 66.5293 1 68.9551 1C71.3959 1 73.5521 1.59896 75.4239 2.79688C77.3106 3.97982 78.7631 5.67188 79.7813 7.87305C80.7995 10.0592 81.3086 12.5524 81.3086 15.3525V20.249ZM80.0957 15.3076C80.0957 11.3545 79.0925 8.1875 77.086 5.80664C75.0795 3.41081 72.3692 2.21289 68.9551 2.21289C65.586 2.21289 62.8982 3.40332 60.8916 5.78418C58.8851 8.15007 57.8819 11.377 57.8819 15.4648V20.249C57.8819 22.8545 58.3311 25.1605 59.2295 27.167C60.1429 29.1585 61.4382 30.6934 63.1153 31.7715C64.7924 32.8496 66.7539 33.3887 69 33.3887C72.4141 33.3887 75.1169 32.1982 77.1084 29.8174C79.1 27.4365 80.0957 24.1872 80.0957 20.0693V15.3076Z" stroke="black" stroke-width="2" mask="url(#path-1-outside-1)"/>
<path d="M118.941 20.1592H107.599V34.1523H106.386V1.44922H116.808C120.087 1.44922 122.692 2.29525 124.624 3.9873C126.571 5.67936 127.544 7.97786 127.544 10.8828C127.544 13.1139 126.848 15.068 125.455 16.7451C124.078 18.4072 122.318 19.4404 120.177 19.8447L128.914 33.8379V34.1523H127.634L118.941 20.1592ZM107.599 18.9463H117.908C120.424 18.9463 122.453 18.1826 123.995 16.6553C125.552 15.1279 126.331 13.2038 126.331 10.8828C126.331 8.33724 125.47 6.33073 123.748 4.86328C122.041 3.39583 119.698 2.66211 116.718 2.66211H107.599V18.9463Z" stroke="black" stroke-width="2" mask="url(#path-1-outside-1)"/>
<path d="M171.533 24.3818H155.519L151.88 34.1523H150.555L162.796 1.44922H164.278L176.52 34.1523H175.194L171.533 24.3818ZM155.968 23.1689H171.084L163.537 2.90918L155.968 23.1689Z" stroke="black" stroke-width="2" mask="url(#path-1-outside-1)"/>
<path d="M223.069 34.1523H221.857L200.743 3.51562V34.1523H199.508V1.44922H200.743L221.857 32.0186V1.44922H223.069V34.1523Z" stroke="black" stroke-width="2" mask="url(#path-1-outside-1)"/>
<path d="M27.9756 84.6484C27.152 85.7865 25.707 86.7298 23.6406 87.4785C21.5742 88.2272 19.2982 88.6016 16.8125 88.6016C14.3867 88.6016 12.223 88.0101 10.3213 86.8271C8.4196 85.6442 6.92969 83.9746 5.85156 81.8184C4.78841 79.6621 4.24186 77.2214 4.21191 74.4961V68.8809C4.21191 66.2005 4.72852 63.7972 5.76172 61.6709C6.79492 59.5446 8.2474 57.9049 10.1191 56.752C11.9909 55.584 14.0947 55 16.4307 55C19.68 55 22.3229 55.8311 24.3594 57.4932C26.4108 59.1553 27.6012 61.4238 27.9307 64.2988H26.7178C26.3135 61.6934 25.2279 59.6943 23.4609 58.3018C21.694 56.9092 19.3506 56.2129 16.4307 56.2129C13.1364 56.2129 10.4785 57.3883 8.45703 59.7393C6.43555 62.0902 5.4248 65.1823 5.4248 69.0156V74.2266C5.4248 76.7871 5.89648 79.0706 6.83984 81.0771C7.79818 83.0837 9.13835 84.641 10.8604 85.749C12.5973 86.8421 14.5814 87.3887 16.8125 87.3887C18.9987 87.3887 21.0277 87.0667 22.8994 86.4229C24.7712 85.779 26.0589 85.0003 26.7627 84.0869V74.5635H16.7676V73.3281H27.9756V84.6484Z" stroke="black" stroke-width="2" mask="url(#path-1-outside-1)"/>
<path d="M71.4483 78.3818H55.4336L51.795 88.1523H50.4698L62.711 55.4492H64.1934L76.4346 88.1523H75.1094L71.4483 78.3818ZM55.8829 77.1689H70.9991L63.4522 56.9092L55.8829 77.1689Z" stroke="black" stroke-width="2" mask="url(#path-1-outside-1)"/>
<path d="M122.984 88.1523H121.772L100.658 57.5156V88.1523H99.4229V55.4492H100.658L121.772 86.0186V55.4492H122.984V88.1523Z" stroke="black" stroke-width="2" mask="url(#path-1-outside-1)"/>
<path d="M149.701 88.1523V55.4492H158.753C161.284 55.4492 163.575 56.0482 165.626 57.2461C167.678 58.444 169.287 60.1286 170.455 62.2998C171.623 64.4561 172.222 66.8743 172.252 69.5547V73.7998C172.252 76.5251 171.676 78.9808 170.523 81.167C169.385 83.3532 167.79 85.0602 165.738 86.2881C163.687 87.516 161.396 88.1374 158.865 88.1523H149.701ZM150.914 56.6621V86.9395H158.753C161.044 86.9395 163.125 86.3854 164.997 85.2773C166.884 84.1543 168.359 82.597 169.422 80.6055C170.485 78.599 171.024 76.3753 171.039 73.9346V69.7344C171.039 67.2936 170.515 65.0775 169.467 63.0859C168.434 61.0944 166.981 59.5371 165.109 58.4141C163.253 57.276 161.194 56.6921 158.933 56.6621H150.914Z" stroke="black" stroke-width="2" mask="url(#path-1-outside-1)"/>
<path d="M220.666 74.249C220.666 77.0791 220.157 79.5872 219.139 81.7734C218.136 83.9447 216.698 85.6292 214.826 86.8271C212.955 88.0101 210.798 88.6016 208.358 88.6016C204.674 88.6016 201.694 87.2913 199.418 84.6709C197.142 82.0505 196.004 78.5166 196.004 74.0693V69.3525C196.004 66.5374 196.506 64.0368 197.509 61.8506C198.527 59.6644 199.972 57.9798 201.844 56.7969C203.731 55.599 205.887 55 208.313 55C210.753 55 212.91 55.599 214.781 56.7969C216.668 57.9798 218.121 59.6719 219.139 61.873C220.157 64.0592 220.666 66.5524 220.666 69.3525V74.249ZM219.453 69.3076C219.453 65.3545 218.45 62.1875 216.444 59.8066C214.437 57.4108 211.727 56.2129 208.313 56.2129C204.944 56.2129 202.256 57.4033 200.249 59.7842C198.243 62.1501 197.239 65.377 197.239 69.4648V74.249C197.239 76.8545 197.689 79.1605 198.587 81.167C199.5 83.1585 200.796 84.6934 202.473 85.7715C204.15 86.8496 206.111 87.3887 208.358 87.3887C211.772 87.3887 214.474 86.1982 216.466 83.8174C218.458 81.4365 219.453 78.1872 219.453 74.0693V69.3076Z" stroke="black" stroke-width="2" mask="url(#path-1-outside-1)"/>
</svg>
